Coordinates
version=1
nRows=24
nColumns=24
inDegrees=yes

Units are S.I. units (second, meters, Newtons, ...)
Angles are in degrees.

endheader
time	pelvis_tilt	pelvis_list	pelvis_rotation	pelvis_tx	pelvis_ty	pelvis_tz	hip_flexion_r	hip_adduction_r	hip_rotation_r	knee_angle_r	ankle_angle_r	subtalar_angle_r	mtp_angle_r	hip_flexion_l	hip_adduction_l	hip_rotation_l	knee_angle_l	ankle_angle_l	subtalar_angle_l	mtp_angle_l	lumbar_extension	lumbar_bending	lumbar_rotation
      1.47500000	     -5.51747693	     -2.54741928	      0.00055644	     -0.00994883	      1.32151765	     -0.64015615	     -3.79438440	      6.66829661	     16.84158676	     -3.64427795	      2.49447545	      0.52064415	      7.66517848	     32.02708728	     -2.42373253	     -9.22402613	    -28.17567585	     -7.53783852	   -355.99975125	    382.88447398	     -9.86635173	      1.99501899	      8.28438490
      1.48000000	     -5.45155856	     -2.49039970	     -0.08603570	     -0.00429436	      1.32096151	     -0.64029828	     -4.29891880	      6.57313131	     16.98132976	     -3.56921990	      2.74784345	      0.60060796	      7.58449084	     31.66000164	     -2.23439550	     -9.54861105	    -25.89360605	     -8.27692320	   -355.68984046	    382.49854830	     -9.94951157	      1.94553754	      8.24878498
      1.48500000	     -5.37963029	     -2.43270791	     -0.16646870	      0.00131296	      1.32048206	     -0.64056552	     -4.80347176	      6.46844059	     17.10778190	     -3.49912739	      2.93627013	      0.64402022	      7.50153377	     31.26173335	     -2.01883716	     -9.84166208	    -23.58509746	     -9.01337311	   -355.55272490	    382.06519852	     -9.99604972	      1.85571672	      8.51873062
      1.49000000	     -5.29685391	     -2.32873365	     -0.23781351	      0.00717281	      1.31995275	     -0.64076839	     -5.35076425	      6.30878517	     17.19625713	     -3.40082907	      3.16660673	      0.77518708	      7.46582039	     30.77568002	     -1.76196936	    -10.22410612	    -21.19673264	     -9.79406297	   -355.26742076	    381.80318655	    -10.09381264	      1.75911539	      8.51627420
      1.49500000	     -5.28335281	     -2.28298580	     -0.36344394	      0.01293646	      1.31929042	     -0.64105725	     -5.78050708	      6.21451805	     17.37359577	     -3.37799071	      3.41200076	      0.89604998	      7.47361021	     30.36258634	     -1.55830856	    -10.56669404	    -18.85468729	    -10.52023619	   -355.03537758	    381.54577926	    -10.08412429	      1.70075109	      8.70522274
      1.50000000	     -5.24202384	     -2.25154039	     -0.44888397	      0.01851908	      1.31858386	     -0.64142289	     -6.25020889	      6.11968014	     17.45793137	     -3.29523999	      3.57176377	      0.95047611	      7.38070747	     29.91853579	     -1.33768741	    -10.80528928	    -16.49434107	    -11.27139496	   -354.92684419	    381.71089231	    -10.10752434	      1.64868959	      8.95642370
      1.50500000	     -5.21261887	     -2.20104435	     -0.60958185	      0.02424716	      1.31787740	     -0.64155987	     -6.69502973	      6.01462419	     17.67321425	     -3.24767577	      3.69532851	      1.02275563	      7.64008355	     29.48481508	     -1.15905524	    -11.22591424	    -14.22286625	    -11.94255080	   -354.72975751	    382.19280136	    -10.16263748	      1.62123875	      9.03880567
      1.51000000	     -5.19882965	     -2.18792666	     -0.78925069	      0.02992269	      1.31712536	     -0.64167376	     -7.11326705	      5.94637654	     17.91724596	     -3.20871579	      3.80220955	      1.06289718	      7.88775886	     29.06672775	     -1.02124519	    -11.69452327	    -12.01194296	    -12.51817539	   -354.48281997	    382.58293947	    -10.17916895	      1.60114168	      9.23711104
      1.51500000	     -5.24536139	     -2.24620076	     -0.91756410	      0.03563978	      1.31629078	     -0.64201171	     -7.43826456	      5.95858502	     17.99018796	     -3.24382835	      3.98058543	      1.27908921	      8.00844611	     28.70945102	     -0.90266074	    -11.94987040	     -9.84419526	    -13.09839887	   -354.46068940	    383.09857836	    -10.14008448	      1.72428515	      9.37939675
      1.52000000	     -5.25522873	     -2.29469418	     -0.92621833	      0.04150598	      1.31537810	     -0.64245944	     -7.80640476	      5.97116195	     17.87286385	     -3.29890698	      4.23706137	      1.63128969	      8.08637980	     28.32856012	     -0.71816621	    -12.10926633	     -7.79764177	    -13.51043528	   -354.42206019	    383.60505851	    -10.11529109	      1.82202180	      9.33627575
      1.52500000	     -5.32856000	     -2.33375481	     -0.91192323	      0.04757667	      1.31438905	     -0.64295283	     -8.15904082	      5.96658529	     17.72681328	     -3.27176782	      4.44307363	      1.92850116	      8.16759707	     28.02889932	     -0.50372441	    -12.20950231	     -5.88662805	    -13.78813879	   -354.35063910	    383.83351377	     -9.94608986	      1.85500629	      9.44825525
      1.53000000	     -5.46152291	     -2.41105490	     -0.87811140	      0.05357850	      1.31331387	     -0.64359318	     -8.40237765	      6.00717341	     17.57148702	     -3.32299009	      4.61862096	      2.23661909	      8.36063276	     27.82070762	     -0.31515303	    -12.31380130	     -4.08773480	    -14.15661665	   -354.33244687	    384.48117749	     -9.74012286	      1.94695849	      9.52969081
      1.53500000	     -5.58236853	     -2.50888990	     -0.86717192	      0.05951274	      1.31220385	     -0.64405534	     -8.65673090	      6.08867518	     17.45591925	     -3.37099824	      4.78983130	      2.42650791	      8.60496427	     27.68969401	     -0.18448043	    -12.57411572	     -2.56982778	    -14.37796601	   -354.08132942	    385.32346761	     -9.56357700	      2.03731703	      9.63994092
      1.54000000	     -5.74833236	     -2.62878250	     -0.88087739	      0.06532290	      1.31110248	     -0.64450665	     -8.81925303	      6.19709330	     17.41876327	     -3.47877304	      4.96190584	      2.65738728	      8.78328388	     27.67845902	     -0.10542611	    -12.76415833	     -1.35470903	    -14.38099120	   -353.62195366	    385.65869285	     -9.36227537	      2.22682053	      9.62581985
      1.54500000	     -5.90428108	     -2.73861368	     -0.91509202	      0.07128966	      1.31002537	     -0.64497983	     -9.01671989	      6.28758668	     17.47879811	     -3.56574091	      5.07359880	      2.80640597	      8.89706688	     27.67023516	     -0.03094462	    -12.99904860	     -0.31633761	    -14.26504316	   -353.04879750	    386.11048847	     -9.14468657	      2.36572804	      9.64420405
      1.55000000	     -6.06477399	     -2.87624624	     -0.85252878	      0.07728171	      1.30885253	     -0.64551610	     -9.18248475	      6.42834984	     17.29132953	     -3.69878141	      5.18726137	      3.12029977	      9.14348588	     27.74789325	      0.03843167	    -13.14247546	      0.41811969	    -14.05813168	   -352.28555285	    386.34655641	     -8.87171455	      2.41473503	      9.87966927
      1.55500000	     -6.18127874	     -2.94799254	     -0.81768146	      0.08345468	      1.30773284	     -0.64597728	     -9.41716482	      6.48457605	     17.10039794	     -3.80706077	      5.24948427	      3.30911801	      9.50629064	     27.83243118	      0.12896041	    -13.50486932	      0.87206295	    -13.76416050	   -351.20384626	    387.08905378	     -8.69080649	      2.52343588	      9.78685438
      1.56000000	     -6.36848220	     -3.05859109	     -0.75714213	      0.08961027	      1.30652551	     -0.64636222	     -9.54441258	      6.61042911	     16.90598800	     -3.97232424	      5.33310828	      3.62327968	      9.74705332	     28.08577428	      0.15359119	    -13.63949419	      0.97625844	    -13.37661605	   -350.31265446	    387.36054410	     -8.42645841	      2.65327327	      9.67637411
      1.56500000	     -6.49314006	     -3.11590848	     -0.79205361	      0.09579592	      1.30546854	     -0.64656789	     -9.68375007	      6.68805203	     16.71532739	     -4.26621314	      5.51882368	      4.01852122	      9.99817849	     28.31297981	      0.15051886	    -13.84272544	      0.79872090	    -12.93210881	   -349.50662362	    387.51789494	     -8.25034534	      2.69333296	      9.67763987
      1.57000000	     -6.53181728	     -3.09871558	     -0.86132341	      0.10209349	      1.30461299	     -0.64668595	     -9.92292689	      6.66625847	     16.62295502	     -4.55536243	      5.64494598	      4.25967701	     10.31604123	     28.42652925	      0.17678879	    -13.90552707	      0.47068533	    -12.52433174	   -348.98030221	    387.59698238	     -8.10637804	      2.57309654	      9.80811064
      1.57500000	     -6.60005375	     -3.09800915	     -0.88933583	      0.10847171	      1.30370781	     -0.64692332	    -10.12714864	      6.64404774	     16.50641131	     -4.83671792	      5.71941262	      4.63769940	     10.84320427	     28.60923623	      0.19646337	    -13.67160716	     -0.08604145	    -12.11993575	   -348.87673450	    387.45706209	     -7.92269972	      2.49936383	      9.81488104
      1.58000000	     -6.64521760	     -3.05656094	     -0.90624436	      0.11486349	      1.30283055	     -0.64710537	    -10.28816737	      6.60796905	     16.25668955	     -5.28762091	      5.93037575	      5.17314908	     11.06671340	     28.80550422	      0.23673575	    -13.50282705	     -0.81900758	    -11.90768076	   -348.84451177	    387.58289506	     -7.78923927	      2.38358822	      9.83904586
      1.58500000	     -6.62640312	     -2.92788589	     -0.94619677	      0.12141179	      1.30210799	     -0.64733997	    -10.56177255	      6.44896092	     15.99013394	     -5.63916331	      6.08921076	      5.83762137	     11.38766037	     28.87461113	      0.35815215	    -13.27610926	     -1.57544168	    -11.85351459	   -349.04999021	    387.66669528	     -7.71352298	      2.16559669	      9.92760672
      1.59000000	     -6.59615500	     -2.77779462	     -0.99550477	      0.12795008	      1.30134489	     -0.64769876	    -10.83920134	      6.23674692	     15.85058746	     -5.96730467	      6.17483870	      6.39291226	     11.91053277	     28.96924485	      0.49063495	    -12.98371590	     -2.52116402	    -11.82606725	   -349.42496722	    387.80798535	     -7.66049371	      1.95112744	      9.90362565
